<?xml version="1.0"?>
<svg xmlns="http://www.w3.org/2000/svg"
    xmlns:xlink="http://www.w3.org/1999/xlink"
    viewBox="0 0 25 25">
  <defs>
    <style type="text/css">
      /* .final { fill: #00ff00; } */
    </style>
  </defs>
  <g id="upper-left-target">
    <rect x="0" y="0" width="7" height="7" fill="#000000" />
    <rect x="1" y="1" width="5" height="5" fill="#ffffff" />
    <rect x="2" y="2" width="3" height="3" fill="#000000" />
  </g>
  <g id="upper-right-target">
    <rect x="18" y="0" width="7" height="7" fill="#000000" />
    <rect x="19" y="1" width="5" height="5" fill="#ffffff" />
    <rect x="20" y="2" width="3" height="3" fill="#000000" />
  </g>
  <g id="lower-left-target">
    <rect x="0" y="18" width="7" height="7" fill="#000000" />
    <rect x="1" y="19" width="5" height="5" fill="#ffffff" />
    <rect x="2" y="20" width="3" height="3" fill="#000000" />
  </g>
  <g id="lower-right-target">
    <rect x="16" y="16" width="5" height="5" fill="#000000" />
    <rect x="17" y="17" width="3" height="3" fill="#ffffff" />
    <rect x="18" y="18" width="1" height="1" fill="#000000" />
  </g>
  <g id="pattern">
    <rect x="9" y="1" width="1" height="1" fill="#000000" />
    <rect x="8" y="3" width="2" height="1" fill="#000000" />
    <rect x="8" y="5" width="1" height="3" fill="#000000" />
    <rect x="10" y="6" width="1" height="2" fill="#000000" />
    <path d="M 0 14 L 0 15 L 2 15 L 2 16 L 0 16 L 0 17 L 5 17 L 5 16 L 3 16 L 3 14 L 2 14 L 2 13 L 1 13 L 1 14 Z" fill="#000000" class="final"/>
    <rect x="0" y="11" width="1" height="2" fill="#000000" />
    <path d="M 1 8 L 1 10 L 2 10 L 2 9 L 3 9 L 3 8 Z" fill="#000000" class="final" />
    <rect x="3" y="9" width="1" height="1" fill="#000000" />
    <rect x="2" y="11" width="2" height="1" fill="#000000" />
    <rect x="4" y="10" width="3" height="3" fill="#000000" />
    <rect x="4" y="11" width="1" height="1" fill="#ffffff" />
    <rect x="6" y="11" width="1" height="1" fill="#ffffff" />
    <rect x="4" y="13" width="1" height="1" fill="#000000" />
    <path d="M 5 14 L 5 16 L 6 16 L 6 15 L 7 15 L 7 16 L 6 16 L 6 17 L 8 17 L 8 14 Z" fill="#000000" class="final" />
    <rect x="7" y="9" width="1" height="1" fill="#000000" />
    <rect x="6" y="8" width="1" height="1" fill="#000000" />
    <rect x="7" y="11" width="3" height="3" fill="#000000" />
    <rect x="7" y="12" width="2" height="2" fill="#ffffff" />
    <rect x="8" y="13" width="1" height="1" fill="#000000" />
    <rect x="10" y="12" width="1" height="1" fill="#000000" />
    <rect x="10" y="14" width="1" height="1" fill="#000000" />
    <rect x="9" y="15" width="1" height="1" fill="#000000" />
    <rect x="10" y="16" width="1" height="1" fill="#000000" />
    <rect x="8" y="17" width="2" height="2" fill="#000000" />
    <rect x="8" y="18" width="1" height="1" fill="#ffffff" />
    <rect x="10" y="19" width="1" height="1" fill="#000000" />
    <rect x="11" y="17" width="1" height="2" fill="#000000" />
    <rect x="9" y="20" width="1" height="2" fill="#000000" />
    <rect x="8" y="22" width="1" height="2" fill="#000000" />
    <rect x="9" y="23" width="1" height="2" fill="#000000" />
    <rect x="10" y="22" width="2" height="1" fill="#000000" />
    <rect x="11" y="24" width="2" height="1" fill="#000000" />
    <rect x="13" y="22" width="1" height="3" fill="#000000" />
    <rect x="12" y="20" width="2" height="2" fill="#000000" />
    <rect x="14" y="19" width="2" height="2" fill="#000000" />
    <rect x="14" y="18" width="1" height="1" fill="#000000" />
    <rect x="16" y="21" width="2" height="2" fill="#000000" />
    <rect x="16" y="22" width="1" height="1" fill="#ffffff" />
    <rect x="15" y="23" width="2" height="2" fill="#000000" />
    <rect x="15" y="23" width="1" height="1" fill="#ffffff" />
    <rect x="11" y="0" width="5" height="1" fill="#000000" />
    <rect x="15" y="1" width="1" height="1" fill="#000000" />
    <rect x="11" y="1" width="1" height="2" fill="#000000" />
    <rect x="12" y="2" width="2" height="2" fill="#000000" />
    <rect x="13" y="3" width="1" height="1" fill="#ffffff" />
    <rect x="12" y="5" width="3" height="3" fill="#000000" />
    <rect x="14" y="7" width="1" height="1" fill="#ffffff" />
    <rect x="13" y="6" width="1" height="1" fill="#ffffff" />
    <rect x="11" y="4" width="1" height="2" fill="#000000" />
    <rect x="11" y="8" width="3" height="1" fill="#000000" />
    <rect x="9" y="8" width="1" height="2" fill="#000000" />
    <rect x="10" y="9" width="1" height="2" fill="#000000" />
    <rect x="11" y="11" width="1" height="1" fill="#000000" />
    <rect x="11" y="10" width="4" height="1" fill="#000000" />
    <rect x="15" y="7" width="2" height="4" fill="#000000" />
    <rect x="16" y="4" width="1" height="3" fill="#000000" />
    <rect x="15" y="3" width="1" height="2" fill="#000000" />
    <rect x="14" y="11" width="2" height="4" fill="#000000" />
    <rect x="13" y="12" width="1" height="1" fill="#000000" />
    <rect x="13" y="12" width="1" height="1" fill="#000000" />
    <rect x="12" y="14" width="2" height="1" fill="#000000" />
    <rect x="13" y="15" width="2" height="2" fill="#000000" />
    <rect x="14" y="15" width="1" height="1" fill="#ffffff" />
    <rect x="15" y="15" width="2" height="1" fill="#000000" />
    <rect x="17" y="14" width="2" height="2" fill="#000000" />
    <rect x="18" y="12" width="2" height="2" fill="#000000" />
    <rect x="17" y="9" width="1" height="1" fill="#000000" />
    <rect x="18" y="8" width="2" height="2" fill="#000000" />
    <rect x="18" y="10" width="1" height="1" fill="#000000" />
    <rect x="17" y="11" width="1" height="1" fill="#000000" />
    <rect x="19" y="11" width="1" height="1" fill="#000000" />
    <rect x="20" y="10" width="2" height="2" fill="#000000" />
    <rect x="21" y="8" width="1" height="2" fill="#000000" />
    <rect x="22" y="10" width="1" height="1" fill="#000000" />
    <rect x="23" y="9" width="2" height="2" fill="#000000" />
    <rect x="23" y="10" width="1" height="1" fill="#ffffff" />
    <rect x="21" y="14" width="2" height="1" fill="#000000" />
    <rect x="23" y="13" width="1" height="1" fill="#000000" />
    <rect x="24" y="12" width="1" height="3" fill="#000000" />
    <rect x="21" y="18" width="1" height="1" fill="#000000" />
    <rect x="22" y="17" width="1" height="1" fill="#000000" />
    <rect x="23" y="16" width="1" height="1" fill="#000000" />
    <rect x="24" y="17" width="1" height="2" fill="#000000" />
    <rect x="21" y="20" width="2" height="2" fill="#000000" />
    <rect x="22" y="20" width="1" height="1" fill="#ffffff" />
    <rect x="23" y="20" width="2" height="3" fill="#000000" />
    <rect x="24" y="21" width="1" height="1" fill="#ffffff" />
    <rect x="20" y="21" width="1" height="3" fill="#000000" />
    <rect x="19" y="23" width="1" height="1" fill="#000000" />
    <rect x="21" y="24" width="1" height="1" fill="#000000" />
    <rect x="24" y="24" width="1" height="1" fill="#000000" />
  </g>
</svg>