<?xml version="1.0" encoding="UTF-8" standalone="no"?>
<!-- Created with Inkscape (http://www.inkscape.org/) -->

<svg xmlns:dc="http://purl.org/dc/elements/1.1/"
   xmlns:cc="http://creativecommons.org/ns#"
   xmlns:rdf="http://www.w3.org/1999/02/22-rdf-syntax-ns#"
   xmlns:svg="http://www.w3.org/2000/svg"
   xmlns="http://www.w3.org/2000/svg"
   xmlns:sodipodi="http://sodipodi.sourceforge.net/DTD/sodipodi-0.dtd"
   xmlns:inkscape="http://www.inkscape.org/namespaces/inkscape"
   id="svg3004"
   version="1.1"
   inkscape:version="0.48.4 r9939"
   width="475"
   height="100"
   xml:space="preserve"
   sodipodi:docname="2013logo_dark.pdf">
  <metadata id="metadata3010">
    <rdf:RDF>
      <cc:Work rdf:about="">
        <dc:format>image/svg+xml</dc:format>
        <dc:type rdf:resource="http://purl.org/dc/dcmitype/StillImage" />
        <dc:title></dc:title>
      </cc:Work>
    </rdf:RDF>
  </metadata>
  <defs id="defs3008">
    <clipPath clipPathUnits="userSpaceOnUse"
       id="clipPath3018">
      <path d="M 0,80 380,80 380,0 0,0 0,80 z"
         id="path3020" />
    </clipPath>
  </defs>
  <defs>
    <style type="text/css">
      .primary { 
        fill: #ffffff;  
        fill-opacity: 1;
        fill-rule: nonzero;
        stroke: none; 
      }
      .accent { 
        fill: #7b7979; 
        fill-opacity: 1;
        fill-rule: nonzero;
        stroke: none; 
      }
    </style>
  </defs>
  <sodipodi:namedview pagecolor="#ffffff"
     bordercolor="#666666"
     borderopacity="1"
     objecttolerance="10"
     gridtolerance="10"
     guidetolerance="10"
     inkscape:pageopacity="0"
     inkscape:pageshadow="2"
     inkscape:window-width="1293"
     inkscape:window-height="940"
     id="namedview3006"
     showgrid="false"
     inkscape:zoom="0.72631579"
     inkscape:cx="237.5"
     inkscape:cy="50"
     inkscape:window-x="0"
     inkscape:window-y="0"
     inkscape:window-maximized="0"
     inkscape:current-layer="text3026" />
  <g id="g3012"
     inkscape:groupmode="layer"
     inkscape:label="2013logo_dark"
     transform="matrix(1.25,0,0,-1.25,0,100)">
    <g id="g3014">
      <g id="g3016"
         clip-path="url(#clipPath3018)">
        <g transform="matrix(1,0,0,-1,11.4165,17.7568)"
           id="text3022">
          <path d="m 24.046875,-51.679687 -3.65625,14.589843 8.613281,0 3.691406,-14.589843 5.625,0 -3.691406,14.589843 8.578125,0 0,5.414063 -9.878906,0 -2.953125,11.742187 8.789062,0 0,5.378906 -10.160156,0 L 25.347656,0 l -5.625,0 3.691406,-14.554688 -8.648437,0 L 11.074219,0 5.484375,0 l 3.65625,-14.554688 -9.0703125,0 0,-5.378906 10.4414065,0 2.953125,-11.742187 -9.3515628,0 0,-5.414063 10.6523438,0 3.65625,-14.589843 5.625,0 m 3.65625,20.003906 -8.613281,0 -2.953125,11.742187 8.648437,0 2.917969,-11.742187"
             id="path3073"
             class="accent" />
          <path d="m 50.684624,-52.488281 7.136718,0 0,23.027344 -0.738281,12.550781 -5.660156,0 -0.738281,-12.550781 0,-23.027344 m 0,43.5585935 7.136718,0 0,8.9296875 -7.136718,0 0,-8.9296875"
             id="path3075"
             class="accent" />
          <path d="m 91.301907,-52.488281 6.679687,0 -27.632812,59.1679685 -6.714844,0 27.667969,-59.1679685"
             id="path3077"
             class="accent" />
        </g>
        <g transform="matrix(1,0,0,-1,104.0085,17.7568)"
           id="text3026">
          <path d="m 37.019531,-11.214844 c -0.914098,3.9843825 -2.671909,7.0195357 -5.273437,9.105469 -2.601592,2.08593752 -5.96487,3.1289052 -10.089844,3.1289062 -5.437516,-1e-6 -9.808606,-1.79296793 -13.1132812,-5.3789062 -3.3046928,-3.609367 -4.9570349,-8.390612 -4.9570313,-14.34375 -3.6e-6,-5.976538 1.6523385,-10.746064 4.9570313,-14.308594 3.3046752,-3.585901 7.6757652,-5.378868 13.1132812,-5.378906 2.367163,3.8e-5 4.72263,0.281288 7.066406,0.84375 2.343719,0.5391 4.699186,1.37113 7.066406,2.496094 l 0,9.5625 -3.761718,0 c -0.492219,-3.281221 -1.570343,-5.671844 -3.234375,-7.171875 -1.640652,-1.499966 -3.996119,-2.249965 -7.066407,-2.25 -3.492205,3.5e-5 -6.128921,1.359408 -7.910156,4.078125 -1.781262,2.69534 -2.671886,6.738305 -2.671875,12.128906 -1.1e-5,5.390638 0.878894,9.4453218 2.636719,12.1640625 1.781234,2.7187538 4.429669,4.0781275 7.945312,4.078125 2.789038,2.5e-6 5.015599,-0.7265593 6.679688,-2.1796875 1.664032,-1.4531189 2.80075,-3.644523 3.410156,-6.574219 l 5.203125,0"
             id="path3066"
             class="primary" />
          <path d="m 77.620781,-30.09375 c 1.242149,-2.742155 2.824179,-4.804653 4.746094,-6.1875 1.945268,-1.406212 4.206985,-2.109337 6.785156,-2.109375 3.91401,3.8e-5 6.831976,1.218787 8.753906,3.65625 1.921816,2.414095 2.882753,6.070341 2.882813,10.96875 l 0,20.0390625 5.83594,0 0,3.7265625 -17.92969,0 0,-3.7265625 5.625,0 0,-19.3007815 c -5.4e-5,-3.820285 -0.562554,-6.539033 -1.6875,-8.15625 -1.125051,-1.617154 -2.988331,-2.425747 -5.589844,-2.425781 -2.882856,3.4e-5 -5.085979,1.089876 -6.609375,3.269531 -1.500039,2.179716 -2.250038,5.355494 -2.25,9.527344 l 0,17.0859375 5.625,0 0,3.7265625 -17.71875,0 0,-3.7265625 5.625,0 0,-19.5468745 c -3.1e-5,-3.726536 -0.562531,-6.374971 -1.6875,-7.945313 -1.125029,-1.593717 -2.988308,-2.390591 -5.589844,-2.390625 -2.882834,3.4e-5 -5.085956,1.089876 -6.609375,3.269531 -1.500016,2.179716 -2.250015,5.355494 -2.25,9.527344 l 0,17.0859375 5.625,0 0,3.7265625 -17.929687,0 0,-3.7265625 5.835937,0 0,-29.9531245 -6.1875,0 0,-3.691407 12.65625,0 0,6.644532 c 1.195296,-2.484342 2.718732,-4.382778 4.570313,-5.695313 1.851541,-1.312462 3.949195,-1.968712 6.292968,-1.96875 2.906221,3.8e-5 5.332,0.7266 7.277344,2.179688 1.945277,1.429722 3.246057,3.468782 3.902344,6.117187"
             id="path3068"
             class="primary" />
          <path d="m 134.06428,-37.371094 12.09375,0 0,33.6445315 6.11719,0 0,3.7265625 -12.58594,0 0,-6.609375 c -1.19534,2.4843791 -2.74222,4.3828147 -4.64063,5.6953125 -1.89846,1.28906213 -4.10158,1.9335927 -6.60937,1.9335937 -4.14846,-1e-6 -7.20705,-1.1718748 -9.17578,-3.515625 -1.94532,-2.3671826 -2.91798,-6.0703039 -2.91797,-11.1093752 l 0,-20.003906 -5.83594,0 0,-3.761719 12.33984,0 0,21.761719 c -1e-5,4.546886 0.55077,7.6640704 1.65235,9.3515625 1.12498,1.6875046 3.11717,2.5312537 5.97656,2.53125 2.99998,3.7e-6 5.28513,-1.1015577 6.85547,-3.3046875 1.57028,-2.2031158 2.35544,-5.402331 2.35547,-9.597656 l 0,-16.980469 -5.625,0 0,-3.761719"
             id="path3070"
             class="primary" />
        </g>
        <g transform="matrix(1,0,0,-1,255.3525,17.7568)"
           id="text3030">
          <path d="m 31.253906,-52.488281 6.679688,0 -27.632813,59.1679685 -6.7148435,0 27.6679685,-59.1679685"
             id="path3063"
             class="accent" />
        </g>
        <g transform="matrix(1,0,0,-1,287.8965,17.7568)"
           id="text3034">
          <path d="m 37.019531,-11.214844 c -0.914098,3.9843825 -2.671909,7.0195357 -5.273437,9.105469 -2.601592,2.08593752 -5.96487,3.1289052 -10.089844,3.1289062 -5.437516,-1e-6 -9.808606,-1.79296793 -13.1132812,-5.3789062 -3.3046928,-3.609367 -4.9570349,-8.390612 -4.9570313,-14.34375 -3.6e-6,-5.976538 1.6523385,-10.746064 4.9570313,-14.308594 3.3046752,-3.585901 7.6757652,-5.378868 13.1132812,-5.378906 2.367163,3.8e-5 4.72263,0.281288 7.066406,0.84375 2.343719,0.5391 4.699186,1.37113 7.066406,2.496094 l 0,9.5625 -3.761718,0 c -0.492219,-3.281221 -1.570343,-5.671844 -3.234375,-7.171875 -1.640652,-1.499966 -3.996119,-2.249965 -7.066407,-2.25 -3.492205,3.5e-5 -6.128921,1.359408 -7.910156,4.078125 -1.781262,2.69534 -2.671886,6.738305 -2.671875,12.128906 -1.1e-5,5.390638 0.878894,9.4453218 2.636719,12.1640625 1.781234,2.7187538 4.429669,4.0781275 7.945312,4.078125 2.789038,2.5e-6 5.015599,-0.7265593 6.679688,-2.1796875 1.664032,-1.4531189 2.80075,-3.644523 3.410156,-6.574219 l 5.203125,0"
             id="path3058"
             class="primary" />
          <path d="m 77.339531,-11.214844 c -0.914099,3.9843825 -2.671909,7.0195357 -5.273438,9.105469 -2.601591,2.08593752 -5.964869,3.1289052 -10.089843,3.1289062 -5.437517,-1e-6 -9.808606,-1.79296793 -13.113282,-5.3789062 -3.304692,-3.609367 -4.957034,-8.390612 -4.957031,-14.34375 -3e-6,-5.976538 1.652339,-10.746064 4.957031,-14.308594 3.304676,-3.585901 7.675765,-5.378868 13.113282,-5.378906 2.367163,3.8e-5 4.72263,0.281288 7.066406,0.84375 2.343719,0.5391 4.699185,1.37113 7.066406,2.496094 l 0,9.5625 -3.761719,0 c -0.492219,-3.281221 -1.570343,-5.671844 -3.234375,-7.171875 -1.640652,-1.499966 -3.996118,-2.249965 -7.066406,-2.25 -3.492206,3.5e-5 -6.128922,1.359408 -7.910156,4.078125 -1.781262,2.69534 -2.671886,6.738305 -2.671875,12.128906 -1.1e-5,5.390638 0.878894,9.4453218 2.636719,12.1640625 1.781234,2.7187538 4.429669,4.0781275 7.945312,4.078125 2.789038,2.5e-6 5.015598,-0.7265593 6.679688,-2.1796875 1.664032,-1.4531189 2.80075,-3.644523 3.410156,-6.574219 l 5.203125,0"
             id="path3060"
             class="primary" />
        </g>
      </g>
    </g>
  </g>
</svg>