<?xml version="1.0" encoding="utf-8"?>
<!-- Generator: Adobe Illustrator 16.0.4, SVG Export Plug-In . SVG Version: 6.00 Build 0)  -->
<!DOCTYPE svg PUBLIC "-//W3C//DTD SVG 1.1//EN" "http://www.w3.org/Graphics/SVG/1.1/DTD/svg11.dtd">
<svg version="1.1" id="Layer_1" xmlns="http://www.w3.org/2000/svg" xmlns:xlink="http://www.w3.org/1999/xlink" x="0px" y="0px"
	 width="380px" height="100px" viewBox="0 0 380 100" enable-background="new 0 0 380 100" xml:space="preserve">
<g>
	<path fill="#7C7A7A" d="M35.463,10.22l-3.656,14.59h8.613l3.691-14.59h5.625l-3.691,14.59h8.578v5.414h-9.879l-2.953,11.742h8.789
		v5.379H40.42l-3.656,14.555h-5.625l3.691-14.555h-8.648l-3.691,14.555h-5.59l3.656-14.555h-9.07v-5.379h10.441l2.953-11.742H15.53
		V24.81h10.652l3.656-14.59H35.463z M39.12,30.224h-8.613l-2.953,11.742h8.648L39.12,30.224z"/>
	<path fill="#7C7A7A" d="M62.105,9.411h7.137v23.027l-0.738,12.551h-5.66l-0.738-12.551V9.411z M62.105,52.97h7.137v8.93h-7.137
		V52.97z"/>
	<path fill="#7C7A7A" d="M102.726,9.411h6.68L81.772,68.579h-6.715L102.726,9.411z"/>
	<path fill="#F1F2F2" d="M141.039,50.685c-0.914,3.985-2.672,7.02-5.273,9.105c-2.602,2.087-5.965,3.129-10.09,3.129
		c-5.438,0-9.809-1.798-13.113-5.396c-3.305-3.598-4.957-8.373-4.957-14.326c0-5.977,1.652-10.752,4.957-14.326
		c3.305-3.574,7.676-5.361,13.113-5.361c2.367,0,4.723,0.276,7.066,0.826c2.343,0.551,4.699,1.389,7.066,2.514v9.562h-3.762
		c-0.492-3.281-1.564-5.672-3.217-7.172c-1.652-1.5-4.014-2.25-7.084-2.25c-3.493,0-6.129,1.354-7.91,4.061
		c-1.781,2.707-2.672,6.756-2.672,12.146c0,5.391,0.884,9.445,2.654,12.164c1.77,2.72,4.412,4.078,7.928,4.078
		c2.789,0,5.015-0.726,6.68-2.18c1.664-1.453,2.8-3.644,3.41-6.574H141.039z"/>
	<path fill="#F1F2F2" d="M181.645,31.806c1.242-2.742,2.83-4.811,4.764-6.205c1.934-1.394,4.189-2.092,6.768-2.092
		c3.914,0,6.832,1.213,8.754,3.639c1.921,2.426,2.883,6.088,2.883,10.986v20.039h5.836v3.727h-17.93v-3.727h5.625V38.872
		c0-3.82-0.562-6.539-1.688-8.156s-2.988-2.426-5.59-2.426c-2.883,0-5.08,1.09-6.592,3.27s-2.268,5.356-2.268,9.527v17.086h5.625
		v3.727h-17.719v-3.727h5.625V38.626c0-3.727-0.562-6.381-1.688-7.963s-2.988-2.373-5.59-2.373c-2.883,0-5.08,1.09-6.592,3.27
		s-2.268,5.356-2.268,9.527v17.086h5.625v3.727h-17.93v-3.727h5.836V28.22h-6.188v-3.691h12.656v6.645
		c1.195-2.484,2.719-4.382,4.57-5.695c1.851-1.312,3.949-1.969,6.293-1.969c2.906,0,5.332,0.721,7.277,2.162
		C179.688,27.112,180.988,29.157,181.645,31.806z"/>
	<path fill="#F1F2F2" d="M238.106,24.528H250.2v33.645h6.117v3.727h-12.586V55.29c-1.195,2.484-2.742,4.377-4.641,5.678
		s-4.102,1.951-6.609,1.951c-4.148,0-7.202-1.178-9.158-3.533c-1.957-2.355-2.936-6.052-2.936-11.092V28.29h-5.836v-3.762h12.34
		V46.29c0,4.547,0.557,7.664,1.67,9.352c1.112,1.688,3.1,2.531,5.959,2.531c3,0,5.285-1.102,6.855-3.305
		c1.57-2.203,2.355-5.402,2.355-9.598V28.29h-5.625V24.528z"/>
	<path fill="#7C7A7A" d="M286.643,9.411h6.68L265.69,68.579h-6.715L286.643,9.411z"/>
	<path fill="#F1F2F2" d="M324.956,50.685c-0.914,3.985-2.672,7.02-5.273,9.105c-2.602,2.087-5.965,3.129-10.09,3.129
		c-5.438,0-9.809-1.798-13.113-5.396c-3.305-3.598-4.957-8.373-4.957-14.326c0-5.977,1.652-10.752,4.957-14.326
		c3.305-3.574,7.676-5.361,13.113-5.361c2.367,0,4.723,0.276,7.066,0.826c2.344,0.551,4.699,1.389,7.066,2.514v9.562h-3.762
		c-0.492-3.281-1.564-5.672-3.217-7.172c-1.652-1.5-4.014-2.25-7.084-2.25c-3.492,0-6.129,1.354-7.91,4.061
		s-2.672,6.756-2.672,12.146c0,5.391,0.885,9.445,2.654,12.164c1.77,2.72,4.412,4.078,7.928,4.078c2.789,0,5.016-0.726,6.68-2.18
		c1.664-1.453,2.801-3.644,3.41-6.574H324.956z"/>
	<path fill="#F1F2F2" d="M365.28,50.685c-0.914,3.985-2.672,7.02-5.273,9.105c-2.602,2.087-5.965,3.129-10.09,3.129
		c-5.438,0-9.809-1.798-13.113-5.396c-3.305-3.598-4.957-8.373-4.957-14.326c0-5.977,1.652-10.752,4.957-14.326
		c3.305-3.574,7.676-5.361,13.113-5.361c2.367,0,4.723,0.276,7.066,0.826c2.344,0.551,4.699,1.389,7.066,2.514v9.562h-3.762
		c-0.492-3.281-1.564-5.672-3.217-7.172c-1.652-1.5-4.014-2.25-7.084-2.25c-3.492,0-6.129,1.354-7.91,4.061
		s-2.672,6.756-2.672,12.146c0,5.391,0.885,9.445,2.654,12.164c1.77,2.72,4.412,4.078,7.928,4.078c2.789,0,5.016-0.726,6.68-2.18
		c1.664-1.453,2.801-3.644,3.41-6.574H365.28z"/>
</g>
<g>
	<path fill="#F1F2F2" d="M24.131,87.466c-0.377,1.604-1.055,2.795-2.033,3.573c-0.979,0.777-2.293,1.166-3.943,1.166
		c-2.426,0-4.341-0.724-5.746-2.172c-1.405-1.448-2.107-3.411-2.107-5.891c0-2.486,0.702-4.454,2.107-5.902
		c1.405-1.447,3.32-2.172,5.746-2.172c0.847,0,1.732,0.111,2.657,0.334c0.925,0.222,1.899,0.559,2.924,1.01v3.823H22.52
		c-0.249-1.306-0.703-2.283-1.361-2.933c-0.658-0.648-1.528-0.974-2.609-0.974c-1.401,0-2.44,0.558-3.116,1.672
		c-0.676,1.115-1.014,2.828-1.014,5.142c0,2.312,0.338,4.024,1.014,5.136c0.676,1.111,1.718,1.667,3.126,1.667
		c0.96,0,1.743-0.288,2.348-0.865c0.604-0.576,1.042-1.448,1.312-2.614H24.131z"/>
	<path fill="#F1F2F2" d="M35.965,85.101v5.542h1.462v1.261h-4.855v-1.406c-0.448,0.583-0.948,1.014-1.499,1.292
		c-0.551,0.277-1.179,0.416-1.883,0.416c-1.046,0-1.848-0.304-2.407-0.911c-0.558-0.607-0.837-1.478-0.837-2.609
		c0-1.243,0.402-2.174,1.206-2.792c0.804-0.618,2.013-0.928,3.628-0.928h1.792v-0.656c0-0.896-0.196-1.558-0.587-1.984
		s-0.996-0.641-1.814-0.641c-0.683,0-1.208,0.151-1.574,0.453c-0.367,0.302-0.628,0.797-0.785,1.484h-1.088v-2.386
		c0.612-0.235,1.243-0.413,1.894-0.531s1.339-0.177,2.065-0.177c1.828,0,3.166,0.368,4.012,1.104S35.965,83.524,35.965,85.101z
		 M32.571,88.424v-2.219h-1.28c-0.633,0-1.121,0.188-1.462,0.562c-0.342,0.375-0.512,0.913-0.512,1.614
		c0,0.702,0.125,1.227,0.374,1.573c0.249,0.348,0.626,0.521,1.131,0.521c0.526,0,0.95-0.188,1.27-0.563
		C32.412,89.538,32.571,89.042,32.571,88.424z"/>
	<path fill="#F1F2F2" d="M48.439,80.704v3.303h-1.089c-0.036-0.59-0.181-1.029-0.438-1.318c-0.256-0.288-0.629-0.432-1.12-0.432
		c-0.74,0-1.323,0.354-1.75,1.062c-0.427,0.708-0.641,1.691-0.641,2.948v4.375h1.846v1.261h-6.701v-1.261h1.451V82.09H38.44v-1.261
		h4.962v1.969c0.327-0.771,0.765-1.342,1.313-1.713c0.547-0.372,1.22-0.558,2.017-0.558c0.199,0,0.441,0.016,0.726,0.047
		S48.069,80.648,48.439,80.704z"/>
	<path fill="#F1F2F2" d="M48.909,91.903v-1.261h1.451V82.09h-1.451v-1.261h4.855v1.562c0.406-0.659,0.872-1.135,1.398-1.427
		s1.188-0.438,1.985-0.438c1.146,0,2.012,0.366,2.599,1.099c0.587,0.733,0.88,1.812,0.88,3.235v5.781h1.462v1.261h-6.104v-1.261
		h1.238v-5.886c0-0.938-0.11-1.589-0.331-1.953c-0.221-0.365-0.602-0.547-1.142-0.547c-0.683,0-1.184,0.272-1.504,0.817
		c-0.32,0.546-0.48,1.412-0.48,2.6v4.969h1.238v1.261H48.909z"/>
	<path fill="#F1F2F2" d="M74.156,86.893h-7.021v0.083c0,1.431,0.199,2.464,0.598,3.1s1.039,0.953,1.921,0.953
		c0.732,0,1.327-0.212,1.782-0.636c0.456-0.424,0.747-1.038,0.875-1.844h1.601c-0.278,1.257-0.827,2.181-1.649,2.771
		c-0.822,0.59-1.965,0.885-3.431,0.885c-1.771,0-3.128-0.505-4.071-1.516c-0.943-1.011-1.414-2.453-1.414-4.328
		c0-1.834,0.482-3.265,1.446-4.292c0.964-1.028,2.311-1.542,4.039-1.542c1.686,0,2.98,0.54,3.884,1.62
		C73.619,83.228,74.099,84.809,74.156,86.893z M70.421,85.652c0-1.458-0.125-2.48-0.374-3.067s-0.676-0.881-1.28-0.881
		c-0.583,0-1.001,0.289-1.254,0.865s-0.379,1.542-0.379,2.896v0.188H70.421z"/>
	<path fill="#F1F2F2" d="M86.887,82.09v9.668c0,1.556-0.51,2.759-1.531,3.609s-2.463,1.276-4.327,1.276
		c-0.683,0-1.373-0.058-2.07-0.172c-0.697-0.115-1.412-0.287-2.145-0.516V93.31h1.078c0.1,0.729,0.372,1.271,0.816,1.625
		c0.444,0.354,1.08,0.531,1.905,0.531c1.053,0,1.794-0.272,2.225-0.817c0.431-0.545,0.646-1.509,0.646-2.891v-1.261
		c-0.285,0.576-0.672,1.005-1.163,1.286c-0.491,0.281-1.096,0.422-1.814,0.422c-1.444,0-2.581-0.521-3.409-1.562
		c-0.829-1.042-1.243-2.469-1.243-4.281c0-1.819,0.414-3.247,1.243-4.282c0.829-1.034,1.965-1.552,3.409-1.552
		c0.719,0,1.323,0.141,1.814,0.422c0.491,0.281,0.878,0.71,1.163,1.286v-1.406h4.855v1.261H86.887z M83.483,85.819
		c0-1.292-0.153-2.226-0.459-2.802c-0.306-0.577-0.797-0.865-1.473-0.865c-0.704,0-1.199,0.304-1.483,0.912
		c-0.285,0.607-0.427,1.706-0.427,3.297c0,1.59,0.144,2.691,0.432,3.302c0.288,0.611,0.781,0.917,1.478,0.917
		c0.676,0,1.167-0.288,1.473-0.864c0.306-0.576,0.459-1.511,0.459-2.803V85.819z"/>
	<path fill="#F1F2F2" d="M94.313,90.643h1.452v1.261h-6.307v-1.261h1.451V82.09h-1.451v-1.261h4.855V90.643z M90.589,77.693
		c0-0.562,0.18-1.036,0.539-1.422c0.359-0.385,0.798-0.578,1.318-0.578c0.505,0,0.936,0.193,1.291,0.578
		c0.356,0.386,0.534,0.859,0.534,1.422c0,0.549-0.178,1.016-0.534,1.401c-0.355,0.386-0.786,0.578-1.291,0.578
		c-0.52,0-0.958-0.19-1.318-0.573C90.769,78.718,90.589,78.249,90.589,77.693z"/>
	<path fill="#F1F2F2" d="M107.876,86.893h-7.021v0.083c0,1.431,0.199,2.464,0.598,3.1s1.039,0.953,1.921,0.953
		c0.732,0,1.327-0.212,1.782-0.636c0.456-0.424,0.747-1.038,0.875-1.844h1.601c-0.278,1.257-0.827,2.181-1.649,2.771
		c-0.822,0.59-1.965,0.885-3.431,0.885c-1.771,0-3.128-0.505-4.071-1.516c-0.943-1.011-1.414-2.453-1.414-4.328
		c0-1.834,0.482-3.265,1.446-4.292c0.964-1.028,2.311-1.542,4.039-1.542c1.686,0,2.98,0.54,3.884,1.62
		C107.339,83.228,107.819,84.809,107.876,86.893z M104.142,85.652c0-1.458-0.125-2.48-0.374-3.067s-0.676-0.881-1.28-0.881
		c-0.583,0-1.001,0.289-1.254,0.865s-0.379,1.542-0.379,2.896v0.188H104.142z"/>
	<path fill="#F1F2F2" d="M116.424,91.903v-1.261h1.825V77.61h-1.825V76.35h5.922l4.087,9.98l4.108-9.98h5.912v1.261h-1.835v13.032
		h1.835v1.261h-7.374v-1.261h1.825V78.777l-4.45,10.845h-2.433l-4.429-10.845v11.865h1.825v1.261H116.424z"/>
	<path fill="#F1F2F2" d="M148.991,86.893h-7.021v0.083c0,1.431,0.199,2.464,0.598,3.1s1.039,0.953,1.921,0.953
		c0.732,0,1.327-0.212,1.782-0.636c0.456-0.424,0.747-1.038,0.875-1.844h1.601c-0.278,1.257-0.827,2.181-1.649,2.771
		c-0.822,0.59-1.965,0.885-3.431,0.885c-1.771,0-3.128-0.505-4.071-1.516c-0.943-1.011-1.414-2.453-1.414-4.328
		c0-1.834,0.482-3.265,1.446-4.292c0.964-1.028,2.311-1.542,4.039-1.542c1.686,0,2.98,0.54,3.884,1.62
		C148.454,83.228,148.934,84.809,148.991,86.893z M145.256,85.652c0-1.458-0.125-2.48-0.374-3.067s-0.676-0.881-1.28-0.881
		c-0.583,0-1.001,0.289-1.254,0.865s-0.379,1.542-0.379,2.896v0.188H145.256z"/>
	<path fill="#F1F2F2" d="M155.404,90.643h1.452v1.261h-6.307v-1.261H152V76.943h-1.451v-1.25h4.855V90.643z"/>
	<path fill="#F1F2F2" d="M162.874,90.643h1.452v1.261h-6.307v-1.261h1.451V76.943h-1.451v-1.25h4.855V90.643z"/>
	<path fill="#F1F2F2" d="M171.39,92.205c-1.8,0-3.21-0.519-4.231-1.557c-1.021-1.039-1.531-2.468-1.531-4.287
		c0-1.827,0.51-3.256,1.531-4.287c1.021-1.031,2.431-1.547,4.231-1.547s3.21,0.516,4.231,1.547c1.021,1.031,1.531,2.46,1.531,4.287
		c0,1.819-0.512,3.248-1.537,4.287C174.591,91.687,173.183,92.205,171.39,92.205z M171.39,91.028c0.711,0,1.213-0.333,1.505-1
		c0.292-0.667,0.438-1.89,0.438-3.667c0-1.778-0.144-2.999-0.432-3.662c-0.289-0.663-0.792-0.995-1.51-0.995
		c-0.726,0-1.236,0.336-1.531,1.006c-0.295,0.67-0.443,1.887-0.443,3.651c0,1.764,0.147,2.982,0.443,3.656
		C170.153,90.691,170.664,91.028,171.39,91.028z"/>
	<path fill="#F1F2F2" d="M178.604,91.903v-1.261h1.451V82.09h-1.451v-1.261h4.855v1.562c0.406-0.659,0.872-1.135,1.398-1.427
		s1.188-0.438,1.985-0.438c1.146,0,2.012,0.366,2.599,1.099c0.587,0.733,0.88,1.812,0.88,3.235v5.781h1.462v1.261h-6.104v-1.261
		h1.238v-5.886c0-0.938-0.11-1.589-0.331-1.953c-0.221-0.365-0.602-0.547-1.142-0.547c-0.683,0-1.184,0.272-1.504,0.817
		c-0.32,0.546-0.48,1.412-0.48,2.6v4.969h1.238v1.261H178.604z"/>
	<path fill="#F1F2F2" d="M213.722,87.466c-0.377,1.604-1.055,2.795-2.033,3.573c-0.978,0.777-2.292,1.166-3.942,1.166
		c-2.426,0-4.342-0.724-5.747-2.172c-1.405-1.448-2.107-3.411-2.107-5.891c0-2.486,0.702-4.454,2.107-5.902
		c1.405-1.447,3.32-2.172,5.747-2.172c0.847,0,1.731,0.111,2.657,0.334c0.924,0.222,1.899,0.559,2.924,1.01v3.823h-1.217
		c-0.249-1.306-0.703-2.283-1.36-2.933c-0.658-0.648-1.528-0.974-2.609-0.974c-1.401,0-2.44,0.558-3.116,1.672
		c-0.676,1.115-1.014,2.828-1.014,5.142c0,2.312,0.338,4.024,1.014,5.136c0.676,1.111,1.718,1.667,3.126,1.667
		c0.96,0,1.743-0.288,2.348-0.865c0.604-0.576,1.042-1.448,1.312-2.614H213.722z"/>
	<path fill="#F1F2F2" d="M221.298,92.205c-1.8,0-3.21-0.519-4.231-1.557c-1.021-1.039-1.531-2.468-1.531-4.287
		c0-1.827,0.511-3.256,1.531-4.287c1.021-1.031,2.432-1.547,4.231-1.547s3.21,0.516,4.231,1.547c1.021,1.031,1.531,2.46,1.531,4.287
		c0,1.819-0.513,3.248-1.537,4.287C224.5,91.687,223.091,92.205,221.298,92.205z M221.298,91.028c0.711,0,1.213-0.333,1.505-1
		c0.291-0.667,0.438-1.89,0.438-3.667c0-1.778-0.145-2.999-0.433-3.662s-0.791-0.995-1.51-0.995c-0.726,0-1.236,0.336-1.531,1.006
		s-0.442,1.887-0.442,3.651c0,1.764,0.147,2.982,0.442,3.656S220.573,91.028,221.298,91.028z"/>
	<path fill="#F1F2F2" d="M239.78,82.642c0.47-0.735,0.98-1.272,1.531-1.609c0.552-0.337,1.197-0.505,1.938-0.505
		c1.166,0,2.039,0.359,2.619,1.078s0.87,1.804,0.87,3.256v5.781h1.462v1.261h-6.083v-1.261h1.228v-5.229
		c0-1.382-0.098-2.254-0.293-2.615c-0.196-0.36-0.561-0.541-1.094-0.541c-0.605,0-1.073,0.252-1.403,0.755
		c-0.331,0.504-0.496,1.221-0.496,2.151v5.479h1.216v1.261h-5.837v-1.261h1.217v-5.229c0-1.382-0.1-2.254-0.299-2.615
		c-0.199-0.36-0.559-0.541-1.078-0.541c-0.611,0-1.083,0.252-1.414,0.755c-0.33,0.504-0.496,1.221-0.496,2.151v5.479h1.217v1.261
		h-6.072v-1.261h1.451V82.09h-1.451v-1.261h4.855v1.562c0.392-0.646,0.843-1.117,1.355-1.416c0.512-0.299,1.12-0.448,1.824-0.448
		c0.833,0,1.509,0.172,2.028,0.516C239.093,81.387,239.496,81.92,239.78,82.642z"/>
	<path fill="#F1F2F2" d="M250.558,82.09h-1.462v-1.261h4.866v1.406c0.284-0.576,0.67-1.005,1.157-1.286s1.091-0.422,1.809-0.422
		c1.451,0,2.595,0.52,3.431,1.558s1.254,2.464,1.254,4.276s-0.418,3.239-1.254,4.281s-1.979,1.562-3.431,1.562
		c-0.718,0-1.321-0.141-1.809-0.422s-0.873-0.71-1.157-1.286v4.584h1.568v1.26h-6.435v-1.26h1.462V82.09z M253.962,85.819v1.094
		c0,1.292,0.15,2.227,0.453,2.803s0.795,0.864,1.478,0.864c0.697,0,1.188-0.306,1.473-0.917c0.285-0.61,0.428-1.712,0.428-3.302
		c0-1.591-0.143-2.689-0.428-3.297c-0.284-0.608-0.775-0.912-1.473-0.912c-0.683,0-1.175,0.288-1.478,0.865
		C254.113,83.594,253.962,84.527,253.962,85.819z"/>
	<path fill="#F1F2F2" d="M274.568,80.829v9.813h1.451v1.261h-4.855v-1.562c-0.405,0.66-0.871,1.136-1.397,1.427
		c-0.527,0.292-1.188,0.438-1.985,0.438c-1.146,0-2.012-0.366-2.599-1.099s-0.88-1.811-0.88-3.234V82.09h-1.462v-1.261h4.866v6.47
		c0,1.375,0.104,2.248,0.314,2.62c0.21,0.371,0.596,0.558,1.158,0.558c0.689,0,1.193-0.274,1.51-0.823s0.475-1.421,0.475-2.615
		V82.09h-1.237v-1.261H274.568z"/>
	<path fill="#F1F2F2" d="M278.644,82.09h-1.483v-1.261h1.483v-3.438h3.393v3.438h2.839v1.261h-2.839v6.782
		c0,0.965,0.071,1.566,0.214,1.802c0.143,0.236,0.398,0.354,0.769,0.354c0.412,0,0.717-0.149,0.912-0.448
		c0.195-0.298,0.301-0.761,0.314-1.386h1.431c-0.058,1.111-0.337,1.892-0.838,2.339c-0.502,0.448-1.368,0.672-2.599,0.672
		c-1.401,0-2.352-0.237-2.849-0.713c-0.498-0.476-0.747-1.35-0.747-2.62V82.09z"/>
	<path fill="#F1F2F2" d="M297.393,86.893h-7.021v0.083c0,1.431,0.198,2.464,0.597,3.1s1.039,0.953,1.921,0.953
		c0.733,0,1.327-0.212,1.782-0.636s0.747-1.038,0.875-1.844h1.601c-0.277,1.257-0.827,2.181-1.648,2.771
		c-0.821,0.59-1.965,0.885-3.431,0.885c-1.771,0-3.129-0.505-4.071-1.516s-1.414-2.453-1.414-4.328c0-1.834,0.482-3.265,1.446-4.292
		c0.964-1.028,2.311-1.542,4.039-1.542c1.686,0,2.98,0.54,3.884,1.62S297.335,84.809,297.393,86.893z M293.658,85.652
		c0-1.458-0.124-2.48-0.373-3.067s-0.677-0.881-1.281-0.881c-0.583,0-1.001,0.289-1.254,0.865c-0.252,0.576-0.378,1.542-0.378,2.896
		v0.188H293.658z"/>
	<path fill="#F1F2F2" d="M308.843,80.704v3.303h-1.089c-0.035-0.59-0.182-1.029-0.438-1.318c-0.256-0.288-0.629-0.432-1.12-0.432
		c-0.74,0-1.323,0.354-1.75,1.062c-0.427,0.708-0.641,1.691-0.641,2.948v4.375h1.847v1.261h-6.702v-1.261h1.451V82.09h-1.558v-1.261
		h4.962v1.969c0.327-0.771,0.765-1.342,1.312-1.713c0.548-0.372,1.221-0.558,2.017-0.558c0.199,0,0.441,0.016,0.727,0.047
		C308.146,80.605,308.473,80.648,308.843,80.704z"/>
	<path fill="#F1F2F2" d="M330.131,87.466c-0.377,1.604-1.055,2.795-2.033,3.573c-0.978,0.777-2.292,1.166-3.942,1.166
		c-2.426,0-4.342-0.724-5.747-2.172c-1.404-1.448-2.107-3.411-2.107-5.891c0-2.486,0.703-4.454,2.107-5.902
		c1.405-1.447,3.321-2.172,5.747-2.172c0.847,0,1.731,0.111,2.657,0.334c0.924,0.222,1.899,0.559,2.924,1.01v3.823h-1.217
		c-0.249-1.306-0.703-2.283-1.36-2.933c-0.658-0.648-1.528-0.974-2.609-0.974c-1.401,0-2.44,0.558-3.116,1.672
		c-0.676,1.115-1.014,2.828-1.014,5.142c0,2.312,0.338,4.024,1.014,5.136s1.719,1.667,3.127,1.667c0.96,0,1.743-0.288,2.348-0.865
		c0.604-0.576,1.042-1.448,1.312-2.614H330.131z"/>
	<path fill="#F1F2F2" d="M336.662,90.643h1.451v1.261h-6.307v-1.261h1.451V76.943h-1.451v-1.25h4.855V90.643z"/>
	<path fill="#F1F2F2" d="M350.78,80.829v9.813h1.451v1.261h-4.855v-1.562c-0.405,0.66-0.871,1.136-1.397,1.427
		c-0.527,0.292-1.188,0.438-1.985,0.438c-1.146,0-2.012-0.366-2.599-1.099s-0.88-1.811-0.88-3.234V82.09h-1.462v-1.261h4.866v6.47
		c0,1.375,0.104,2.248,0.314,2.62c0.21,0.371,0.596,0.558,1.158,0.558c0.689,0,1.193-0.274,1.51-0.823s0.475-1.421,0.475-2.615
		V82.09h-1.237v-1.261H350.78z"/>
	<path fill="#F1F2F2" d="M354.813,90.643V76.943h-1.462v-1.25h4.866v6.542c0.284-0.576,0.67-1.005,1.157-1.286
		s1.091-0.422,1.809-0.422c1.451,0,2.595,0.52,3.431,1.558s1.254,2.464,1.254,4.276s-0.418,3.239-1.254,4.281
		s-1.979,1.562-3.431,1.562c-0.718,0-1.321-0.141-1.809-0.422s-0.873-0.71-1.157-1.286v1.406h-4.866v-1.261H354.813z
		 M358.217,86.913c0,1.292,0.15,2.227,0.453,2.803s0.795,0.864,1.478,0.864c0.697,0,1.188-0.306,1.473-0.917
		c0.285-0.61,0.428-1.712,0.428-3.302c0-1.591-0.143-2.689-0.428-3.297c-0.284-0.608-0.775-0.912-1.473-0.912
		c-0.683,0-1.175,0.288-1.478,0.865c-0.303,0.576-0.453,1.51-0.453,2.802V86.913z"/>
</g>
<g>
</g>
<g>
</g>
<g>
</g>
<g>
</g>
<g>
</g>
<g>
</g>
</svg>
